<?xml version="1.0" encoding="UTF-8" standalone="no"?>
<!-- Created with Inkscape (http://www.inkscape.org/) -->

<svg
   xmlns:dc="http://purl.org/dc/elements/1.1/"
   xmlns:cc="http://creativecommons.org/ns#"
   xmlns:rdf="http://www.w3.org/1999/02/22-rdf-syntax-ns#"
   xmlns:svg="http://www.w3.org/2000/svg"
   xmlns="http://www.w3.org/2000/svg"
   xmlns:sodipodi="http://sodipodi.sourceforge.net/DTD/sodipodi-0.dtd"
   xmlns:inkscape="http://www.inkscape.org/namespaces/inkscape"
   id="svg2"
   version="1.1"
   inkscape:version="0.91 r13725"
   xml:space="preserve"
   width="476.05087"
   height="150.38126"
   viewBox="0 0 476.05087 150.38126"
   sodipodi:docname="bnim-white.svg"><metadata
     id="metadata8"><rdf:RDF><cc:Work
         rdf:about=""><dc:format>image/svg+xml</dc:format><dc:type
           rdf:resource="http://purl.org/dc/dcmitype/StillImage" /><dc:title></dc:title></cc:Work></rdf:RDF></metadata><defs
     id="defs6"><clipPath
       clipPathUnits="userSpaceOnUse"
       id="clipPath16"><path
         d="M 0,612 792,612 792,0 0,0 0,612 Z"
         id="path18"
         inkscape:connector-curvature="0" /></clipPath></defs><sodipodi:namedview
     pagecolor="#ffffff"
     bordercolor="#666666"
     borderopacity="1"
     objecttolerance="10"
     gridtolerance="10"
     guidetolerance="10"
     inkscape:pageopacity="0"
     inkscape:pageshadow="2"
     inkscape:window-width="1076"
     inkscape:window-height="642"
     id="namedview4"
     showgrid="false"
     inkscape:zoom="0.30849673"
     inkscape:cx="-50.071441"
     inkscape:cy="75.19075"
     inkscape:window-x="0"
     inkscape:window-y="0"
     inkscape:window-maximized="0"
     inkscape:current-layer="g14"
     fit-margin-top="0"
     fit-margin-left="0"
     fit-margin-right="0"
     fit-margin-bottom="0" /><g
     id="g10"
     inkscape:groupmode="layer"
     inkscape:label="BNIM_no_box_P144C"
     transform="matrix(1.25,0,0,-1.25,-233.885,457.6905)"><g
       id="g12"><g
         id="g14"
         clip-path="url(#clipPath16)"><g
           id="g20"
           transform="translate(218.105,302.4766)"
           style="fill:#ffffff"><path
             d="m 0,0 -10.554,0 0,-34.347 11.225,0 c 11.897,0 16.921,6.868 16.921,16.589 C 17.592,-5.529 12.23,0 0,0 m 0.835,44.404 -11.389,0 0,-25.636 11.893,0 c 10.222,0 13.405,6.033 13.405,12.734 0,8.04 -3.685,12.902 -13.909,12.902 m -1.336,-98.02 -30.496,0 0,117.291 31.668,0 c 21.445,0 34.85,-11.9 34.85,-31.336 0,-9.885 -5.026,-18.934 -14.409,-22.954 9.383,-3.687 17.257,-12.231 17.257,-26.641 0,-24.129 -13.738,-36.36 -38.87,-36.36"
             style="fill:#ffffff;fill-opacity:1;fill-rule:nonzero;stroke:none"
             id="path22"
             inkscape:connector-curvature="0" /></g><g
           id="g24"
           transform="translate(346.9492,248.8604)"
           style="fill:#ffffff"><path
             d="m 0,0 -21.617,52.277 c -3.012,7.372 -6.698,16.924 -8.878,23.793 0.168,-7.204 0.333,-19.27 0.333,-26.641 l 0,-49.429 -19.095,0 0,117.292 21.106,0 20.608,-51.443 C -4.693,58.812 -0.505,47.923 1.674,41.388 1.511,48.593 1.005,61.324 1.005,68.699 l 0,48.593 19.101,0 L 20.106,0 0,0 Z"
             style="fill:#ffffff;fill-opacity:1;fill-rule:nonzero;stroke:none"
             id="path26"
             inkscape:connector-curvature="0" /></g><path
           d="m 414.306,366.152 20.939,0 0,-117.292 -20.939,0 0,117.292 z"
           style="fill:#ffffff;fill-opacity:1;fill-rule:nonzero;stroke:none"
           id="path28"
           inkscape:connector-curvature="0" /><g
           id="g30"
           transform="translate(548.8457,248.8604)"
           style="fill:#ffffff"><path
             d="m 0,0 0,37.868 c 0,13.908 0.166,26.809 0.335,35.52 -2.343,-8.376 -6.2,-21.446 -10.554,-34.85 L -23.79,-3.013 -37.367,38.538 c -4.187,13.238 -8.209,26.474 -10.554,34.85 0.167,-8.711 0.339,-21.612 0.339,-35.52 l 0,-37.868 -18.769,0 0,117.292 21.112,0 13.91,-43.401 c 3.518,-10.89 6.866,-20.943 7.866,-26.474 1.177,5.865 4.528,16.084 7.877,26.474 l 13.909,43.401 20.78,0 L 19.103,0 0,0 Z"
             style="fill:#ffffff;fill-opacity:1;fill-rule:nonzero;stroke:none"
             id="path32"
             inkscape:connector-curvature="0" /></g></g></g></g></svg>